<svg xmlns="http://www.w3.org/2000/svg" viewBox="0 0 100 100">
  <defs>
    <radialGradient id="bg_pirate" cx="50%" cy="30%" r="70%">
      <stop offset="0%" stop-color="#1e293b"/>
      <stop offset="100%" stop-color="#020617"/>
    </radialGradient>
  </defs>
  <rect width="100" height="100" fill="url(#bg_pirate)"/>
  <ellipse cx="50" cy="78" rx="34" ry="24" fill="#854d0e" stroke="#451a03" stroke-width="2.5"/>
  <ellipse cx="50" cy="54" rx="26" ry="22" fill="#b45309" stroke="#451a03" stroke-width="2.5"/>
  <ellipse cx="50" cy="63" rx="14" ry="11" fill="#78350f"/>
  <ellipse cx="46" cy="61" rx="2.5" ry="3" fill="#09090b"/>
  <ellipse cx="54" cy="61" rx="2.5" ry="3" fill="#09090b"/>
  <!-- Olho bom e Tapa-olho -->
  <ellipse cx="37" cy="48" rx="3.2" ry="3.8" fill="#18181b"/>
  <circle cx="38" cy="47" r="1.2" fill="#ffffff"/>
  <!-- Tapa olho no direito -->
  <path d="M 28 42 L 72 52" stroke="#18181b" stroke-width="2.5"/>
  <ellipse cx="62" cy="48" rx="6" ry="6.5" fill="#09090b" stroke="#27272a" stroke-width="1.5"/>
  <!-- Chapéu Pirata -->
  <path d="M 12 34 C 28 12 72 12 88 34 C 74 26 26 26 12 34 Z" fill="#09090b" stroke="#3f3f46" stroke-width="2.5"/>
  <!-- Caveira no Chapéu -->
  <circle cx="50" cy="22" r="5" fill="#f4f4f5"/>
  <circle cx="48" cy="21" r="1" fill="#18181b"/>
  <circle cx="52" cy="21" r="1" fill="#18181b"/>
  <path d="M 47 25 L 53 25" stroke="#18181b" stroke-width="1"/>
</svg>